<svg width="24" height="24" viewBox="0 0 24 24" fill="none" xmlns="http://www.w3.org/2000/svg">
<path d="M5.53932 16.5968C3.02089 14.407 0.796337 12.4176 0.796337 9.22278V9.20926L0.795875 9.19575C0.740009 7.55914 1.33437 5.96701 2.44895 4.7675C3.56265 3.56894 5.1052 2.85985 6.73973 2.79491C7.52615 2.77231 8.30763 2.92644 9.02663 3.24596C9.74679 3.566 10.3859 4.04378 10.8966 4.64402L11.5006 5.35385L12.1039 4.64341C12.6149 4.04159 13.2551 3.56285 13.9768 3.24281C14.6976 2.92315 15.4812 2.77005 16.2692 2.79486C17.7737 2.85439 19.2003 3.45964 20.2864 4.49001C20.2 4.47139 20.1111 4.45597 20.0232 4.44579C19.8862 4.42992 19.6596 4.4146 19.4342 4.48191C19.3148 4.51757 19.1305 4.5957 18.9794 4.77385C18.8103 4.97314 18.7524 5.2149 18.7713 5.43359C18.7879 5.62699 18.8612 5.78195 18.9207 5.88349C18.9836 5.99083 19.0606 6.08796 19.1381 6.17394C19.7628 6.86638 20.1358 7.74313 20.2067 8.66338L19.031 9.0756L19.2364 9.18415C18.9725 9.27356 18.6907 9.36683 18.3954 9.46456C17.9564 9.60987 17.4877 9.76501 17.0038 9.93191C16.0436 10.263 15.0509 10.6317 14.4288 10.9832C14.2689 11.0735 14.1082 11.1765 13.9704 11.2931C13.8519 11.3933 13.6752 11.5652 13.5797 11.8148C13.5274 11.8439 13.4765 11.8756 13.4273 11.9096C13.0548 12.1663 12.766 12.5516 12.5389 12.9417C12.0806 13.7292 11.7222 14.8066 11.4512 15.8407C11.1763 16.8896 10.9756 17.957 10.8522 18.7626C10.7945 19.139 10.7527 19.465 10.7281 19.7105C10.7078 19.7413 10.6889 19.7749 10.6715 19.8114C10.493 20.1868 10.671 20.5029 10.7077 20.5644C10.8104 20.737 10.9527 20.8276 10.9909 20.8518L10.991 20.8519C11.0636 20.8981 11.1446 20.9365 11.2324 20.9668L11.5044 21.143L11.6567 21.0446C11.7451 21.0487 11.8367 21.0461 11.9303 21.0366C12.1405 21.0153 12.3665 20.9596 12.6081 20.8601C12.452 20.9842 12.295 21.1071 12.1372 21.229C11.9472 21.3458 11.7284 21.4077 11.505 21.4077C11.2817 21.4077 11.063 21.3458 10.873 21.2292C9.68121 20.3072 8.53732 19.3249 7.44581 18.2861L7.43687 18.2776L7.42767 18.2694L6.40058 17.3512L6.39959 17.3503C6.13513 17.1147 5.8692 16.8835 5.6097 16.658C5.58617 16.6375 5.56274 16.6171 5.53932 16.5968ZM5.53932 16.5968L5.01948 17.1946M5.53932 16.5968L5.01948 17.1946M5.01948 17.1946C5.04279 17.2149 5.06612 17.2352 5.08947 17.2555C5.34961 17.4816 5.61192 17.7096 5.87255 17.9418L10.9458 3.55993C10.4727 3.13289 9.93381 2.78213 9.34837 2.52197C8.51974 2.15373 7.61897 1.9764 6.71261 2.00309C4.86734 2.07526 3.1257 2.87528 1.86856 4.22821C0.611421 5.58114 -0.0589386 7.37689 0.00407207 9.22278C0.00407207 12.8336 2.55428 15.0511 5.01948 17.1946ZM14.9852 12.5103C14.9875 12.5082 14.9903 12.5057 14.9939 12.5027C15.0266 12.475 15.0935 12.4276 15.2081 12.3628C15.6842 12.0939 16.5399 11.768 17.5204 11.4299C17.9514 11.2812 18.4172 11.1267 18.8645 10.9784C18.9595 10.9469 19.0535 10.9157 19.1463 10.8849C18.966 11.1998 18.7953 11.4943 18.6289 11.7731C17.7937 12.6574 16.8541 13.6399 15.9256 14.603C14.7025 15.8716 13.5008 17.1042 12.5848 18.0318C12.6913 17.4677 12.8248 16.8497 12.984 16.2424C13.2456 15.2442 13.561 14.3358 13.9084 13.7387C14.0843 13.4365 14.2313 13.2798 14.3265 13.2142C14.3675 13.186 14.3823 13.1861 14.3731 13.1877C14.3693 13.1883 14.366 13.1885 14.3635 13.1885L14.6255 12.4424L14.8853 11.703C14.9033 11.7169 14.9261 11.7371 14.9505 11.7649C15.002 11.8236 15.0608 11.9176 15.0861 12.0452C15.1114 12.1736 15.093 12.2865 15.0646 12.3672C15.0368 12.4463 15.0003 12.4934 14.9852 12.5103ZM14.9852 12.5103C14.98 12.515 14.9779 12.5173 14.9781 12.5174C14.9783 12.5174 14.9809 12.5151 14.9852 12.5103ZM15.6711 18.1902C15.5831 18.2742 15.4949 18.3578 15.4063 18.4411C15.4115 18.276 15.4149 18.084 15.4165 17.8622C15.5701 17.7282 15.6785 17.6365 15.7537 17.5751C15.8062 17.5524 15.8652 17.5227 15.8896 17.5079C15.9098 17.4946 15.9431 17.4706 15.9565 17.4602C16.0005 17.4253 16.0313 17.3927 16.0343 17.3895C16.0608 17.3621 16.0805 17.3373 16.084 17.333L16.0844 17.3325L16.0852 17.3316C16.0873 17.3289 16.0931 17.3219 16.1012 17.3111C16.1291 17.278 16.2032 17.192 16.3678 17.0091C16.5805 16.8193 16.7807 16.6343 16.9701 16.4527C17.0707 16.3818 17.1682 16.3229 17.2726 16.2603C17.2831 16.254 17.2937 16.2476 17.3043 16.2413C17.632 16.045 18.0217 15.8116 18.5802 15.2639L18.6144 15.2304L18.6444 15.1929C19.009 14.7368 20.146 13.2135 21.0084 11.8613C21.2021 11.5575 21.3907 11.249 21.5562 10.9548C21.7662 10.7244 21.9553 10.5138 22.1173 10.3292C21.6561 12.9225 19.6088 14.7418 17.5071 16.5655C17.2105 16.822 16.9108 17.0833 16.6146 17.3463L16.6125 17.3481L15.6904 18.1723L15.6806 18.1811L15.6711 18.1902ZM15.8736 17.482C15.8735 17.482 15.8722 17.483 15.8696 17.4846C15.8724 17.4827 15.8737 17.4819 15.8736 17.482ZM22.0515 7.55888C22.0175 7.52081 21.9863 7.48569 21.9574 7.45274C21.9732 7.42182 21.9874 7.38967 22 7.35629C22.0183 7.4235 22.0355 7.49103 22.0515 7.55888ZM14.8529 11.6812C14.8485 11.6792 14.8466 11.6781 14.8467 11.678C14.8468 11.678 14.849 11.679 14.8529 11.6812Z" fill="black" stroke="black" stroke-width="1.58453"/>
</svg>
